<?xml version="1.0" encoding="utf-8"?>
<!-- Generator: Adobe Illustrator 22.1.0, SVG Export Plug-In . SVG Version: 6.00 Build 0)  -->
<svg version="1.1" id="Layer_1" xmlns="http://www.w3.org/2000/svg" xmlns:xlink="http://www.w3.org/1999/xlink" x="0px" y="0px"
	 viewBox="0 0 28 30" style="enable-background:new 0 0 28 30;" xml:space="preserve">
<style type="text/css">
	.st0{fill:#FFFFFF;}
</style>
<title>5Asset 2smbc_dark</title>
<path class="st0" d="M8.1,12.3V12H7.6v-0.2h0.5v-0.6H7.3v0.5H7.1v-0.5H6.7v-0.2h0.4v-0.5h0.2v0.5h0.8v-0.6H7.6V10h0.5V9.7h0.2V10
	h0.5v0.2H8.3v0.6h0.8v-0.5h0.2v0.5h0.4v0.2H9.3v0.5H9.1v-0.5H8.3v0.6h0.5V12H8.3v0.3L8.1,12.3z M13.9,18.9v0.3h-0.5v0.2h0.5v0.6
	h-0.8v-0.5h-0.2v0.5h-0.4v0.2h0.4v0.5h0.2v-0.5h0.8v0.6h-0.5v0.2h0.5v0.3h0.2v-0.3h0.5v-0.2h-0.5v-0.6h0.8v0.5h0.2v-0.5h0.4v-0.2
	h-0.4v-0.5h-0.2v0.5h-0.8v-0.6h0.5v-0.2h-0.5v-0.3H13.9z M24.9,12.4c0,0.4-1,9.4-10.9,14.2C4,21.8,3.2,12.6,3.1,12.5
	C2.9,10.3,3,8,3.4,5.8c1.1,0.3,2.3,0.4,3.5,0.4c2.6,0,5.1-0.8,7.2-2.3c2.1,1.5,4.6,2.3,7.2,2.2c1.2,0,2.3-0.1,3.5-0.4
	C25,8,25.1,10.2,24.9,12.4L24.9,12.4z M11.5,11.2h0.7v0.9h0.4v-0.9h1.3v1.1h-0.9v0.4h0.9v0.5h0.4v-0.5h0.9v-0.4h-0.9v-1.1h1.3v0.9
	h0.4v-0.9h0.7v-0.4h-0.7V9.9h-0.4v0.9h-1.3V9.8h0.9V9.4h-0.9V8.9h-0.4v0.5h-0.9v0.4h0.9v1.1h-1.3V9.9h-0.4v0.9h-0.7V11.2z M5.7,11
	l2.5,3.5l2.5-3.5L8.2,7.5L5.7,11z M11.3,16.8v0.9h0.4v-0.9h0.7v-0.4h-0.7v-0.9h-0.4v0.9H10v-1.1h0.9v-0.4H10v-0.5H9.7v0.5H8.8v0.4
	h0.9v1.1H8.4v-0.9H8v0.9H7.4v0.4H8v0.9h0.4v-0.9h1.3v1.1H8.8v0.4h0.9v0.5H10v-0.5h0.9v-0.4H10v-1.1L11.3,16.8z M16.5,20.2L14,16.7
	l-2.5,3.5l2.5,3.5L16.5,20.2z M20.6,16.5H20v-0.9h-0.4v0.9h-1.3v-1.1h0.9v-0.4h-0.9v-0.5H18v0.5h-0.9v0.4H18v1.1h-1.3v-0.9h-0.4v0.9
	h-0.7v0.4h0.7v0.9h0.4v-0.9H18v1.1h-0.9v0.4H18v0.5h0.4v-0.5h0.9v-0.4h-0.9v-1.1h1.3v0.9H20v-0.9h0.7L20.6,16.5z M22.3,11l-2.5-3.5
	L17.3,11l2.5,3.5L22.3,11z M19.7,9.7V10h-0.5v0.2h0.5v0.6h-0.8v-0.5h-0.2v0.5h-0.4v0.2h0.4v0.5h0.2v-0.5h0.8v0.6h-0.5V12h0.5v0.3
	h0.2V12h0.5v-0.2h-0.5v-0.6h0.8v0.5h0.2v-0.5h0.4v-0.2h-0.4v-0.5h-0.2v0.5h-0.8v-0.6h0.5V10h-0.5V9.7L19.7,9.7z"/>
<path class="st0" d="M14,2.7c2,1.6,4.6,2.5,7.2,2.5c1.4,0,2.9-0.2,4.2-0.7c0.6,2.6,0.7,5.3,0.4,8c0,0.1-0.9,10.1-11.9,15.2
	C3.2,22.7,2.2,13,2.1,12.5C1.8,9.9,2,7.2,2.6,4.5C3.9,5,5.4,5.2,6.8,5.2C9.4,5.2,12,4.4,14,2.7 M14,0c-1.8,2.1-4.4,3.3-7.2,3.2
	C4.9,3.2,3,2.8,1.3,1.9C0.1,5.4-0.3,9.1,0.2,12.8c0,0,0.9,11.7,13.9,17.2c12.9-5.5,13.9-17.2,13.9-17.2c0.5-3.6,0.1-7.4-1.1-10.8
	c-1.7,0.8-3.6,1.3-5.5,1.3C18.4,3.3,15.8,2.1,14,0z"/>
</svg>
